<svg preserveAspectRatio="none" width="100%" height="100%" overflow="visible" style="display: block;" viewBox="0 0 20 20" fill="none" xmlns="http://www.w3.org/2000/svg">
<g id="Group 73">
<rect id="Social Media Icon" width="20" height="20" rx="4" fill="var(--fill-0, #E2E8F0)"/>
<path id="LinkedIn" d="M5.00001 6.3444C5.00001 6.02372 5.11263 5.75917 5.33785 5.55075C5.56307 5.34231 5.85587 5.2381 6.21623 5.2381C6.57016 5.2381 6.85651 5.3407 7.0753 5.54594C7.30052 5.75758 7.41314 6.03334 7.41314 6.37326C7.41314 6.6811 7.30375 6.93762 7.08495 7.14286C6.85973 7.3545 6.56372 7.46032 6.19692 7.46032H6.18727C5.83334 7.46032 5.54699 7.3545 5.3282 7.14286C5.1094 6.93122 5.00001 6.66506 5.00001 6.3444ZM5.12549 14.7619V8.33574H7.26835V14.7619H5.12549ZM8.45561 14.7619H10.5985V11.1736C10.5985 10.9492 10.6242 10.776 10.6757 10.6542C10.7658 10.4361 10.9025 10.2517 11.0859 10.101C11.2693 9.95029 11.4994 9.87494 11.7761 9.87494C12.4968 9.87494 12.8572 10.3591 12.8572 11.3276V14.7619H15V11.0774C15 10.1283 14.7748 9.40837 14.3243 8.91775C13.8739 8.42713 13.2786 8.18182 12.5386 8.18182C11.7085 8.18182 11.0618 8.53776 10.5985 9.24964V9.26888H10.5888L10.5985 9.24964V8.33574H8.45561C8.46848 8.54096 8.47491 9.17908 8.47491 10.2501C8.47491 11.3211 8.46848 12.8251 8.45561 14.7619Z" fill="var(--fill-0, #065386)"/>
</g>
</svg>
