<svg preserveAspectRatio="none" width="100%" height="100%" overflow="visible" style="display: block;" viewBox="0 0 20 20" fill="none" xmlns="http://www.w3.org/2000/svg">
<g id="Group 73">
<rect id="Social Media Icon" width="20" height="20" rx="4" fill="var(--fill-0, #E2E8F0)"/>
<path id="YouTube" d="M10.2437 13.8777L7.98691 13.8356C7.25622 13.8209 6.52371 13.8502 5.80734 13.6979C4.71758 13.4704 4.64038 12.3549 4.5596 11.4192C4.44829 10.1038 4.49138 8.76442 4.70144 7.45993C4.82002 6.72798 5.28671 6.29121 6.00842 6.24369C8.44473 6.0712 10.8972 6.09164 13.3281 6.17211C13.5849 6.17949 13.8434 6.21981 14.0965 6.26571C15.3461 6.48955 15.3766 7.75366 15.4576 8.8178C15.5384 9.89292 15.5043 10.9736 15.3499 12.0414C15.226 12.9255 14.989 13.6669 13.9888 13.7385C12.7356 13.8321 11.5112 13.9074 10.2544 13.8834C10.2545 13.8777 10.2473 13.8777 10.2437 13.8777ZM8.91692 11.6394C9.86131 11.0853 10.7877 10.5404 11.7267 9.99001C10.7805 9.43589 9.85591 8.89101 8.91692 8.34061V11.6394Z" fill="var(--fill-0, #065386)"/>
</g>
</svg>
